<?xml version="1.0" encoding="UTF-8"?>
<svg width="35" height="31" viewBox="0 0 35 31" fill="none" xmlns="http://www.w3.org/2000/svg">
  <path d="M18 0.375C8.57031 0.375 1 6.61719 1 14.1875C1 17.5078 2.39453 20.4961 4.78516 22.8867C3.92188 26.2734 1.13281 29.1953 1.13281 29.2617C1 29.3945 0.933594 29.6602 1 29.8594C1.13281 30.0586 1.26562 30.125 1.53125 30.125C5.91406 30.125 9.23438 28.0664 10.8281 26.7383C13.0195 27.5352 15.4102 28 18 28C27.3633 28 35 21.8242 35 14.1875C35 6.61719 27.3633 0.375 18 0.375ZM25.5703 11.2656L16.8711 19.8984C16.5391 20.2305 16.0742 20.2305 15.8086 19.8984L10.7617 14.8516C10.4961 14.5859 10.4961 14.1211 10.7617 13.7891L12.4883 12.0625C12.8203 11.7969 13.2852 11.7969 13.5508 12.1289L16.3398 14.918L22.7812 8.54297C23.1133 8.21094 23.5781 8.21094 23.8438 8.54297L25.5703 10.2695C25.8359 10.5352 25.8359 11 25.5703 11.2656Z" fill="#1A7998"/>
</svg>
