<?xml version="1.0" encoding="UTF-8"?>
<svg width="32" height="32" viewBox="0 0 32 32" fill="none" xmlns="http://www.w3.org/2000/svg">
  <path d="M20.3438 10.5156L18 10.1875L16.9219 8.07812C16.7344 7.65625 16.2188 7.65625 16.0312 8.07812L14.9531 10.1875L12.6094 10.5156C12.1875 10.6094 12 11.125 12.3281 11.4062L14.0156 13.0938L13.6406 15.4375C13.5469 15.8125 13.9688 16.1406 14.3906 15.9531L16.4531 14.875L18.5625 15.9531C18.9375 16.1406 19.4062 15.8594 19.3125 15.4375L18.9375 13.0938L20.625 11.4062C20.9531 11.125 20.7656 10.6094 20.3438 10.5156ZM17.5312 12.625L17.7656 14.0312L16.5 13.375L15.1875 14.0312L15.4219 12.625L14.3906 11.5938L15.8438 11.4062L16.4531 10.0938L17.1094 11.4062L18.5625 11.5938L17.5312 12.625ZM24 7V4.5625C24 4.28125 23.7188 4 23.4375 4H9.5625C9.23438 4 9 4.28125 9 4.5625V7H3.5625C3.23438 7 3 7.28125 3 7.5625V10.4688C3 13.375 6.1875 16.75 10.5 17.4062C11.9062 20.2656 13.9688 21.625 15.75 21.9531V26.5H11.7188C11.0156 26.5 10.5 27.0625 10.5 27.7656C10.5 27.9062 10.5938 28 10.7812 28H22.2188C22.3594 28 22.5 27.9062 22.5 27.7656C22.5 27.0625 21.9375 26.5 21.2812 26.5H17.25V21.9531C18.9844 21.625 21.0469 20.2656 22.4531 17.4062C26.8125 16.75 30 13.375 30 10.4688V7.5625C30 7.28125 29.7188 7 29.4375 7H24ZM4.5 10.4688V8.5H9V9.625C9 12.0625 9.32812 14.0781 9.84375 15.7656C6.60938 14.9219 4.5 12.3438 4.5 10.4688ZM16.5 20.5C13.125 20.5 10.5 15.625 10.5 9.625V5.5H22.5V9.625C22.5 15.625 19.875 20.5 16.5 20.5ZM28.5 10.4688C28.5 12.3438 26.3438 14.9219 23.1094 15.7656C23.6719 14.0781 24 12.0625 24 9.625V8.5H28.5V10.4688Z" fill="#DDDDD7"/>
</svg>
