<?xml version="1.0" encoding="UTF-8"?>
<svg width="32" height="32" viewBox="0 0 32 32" fill="none" xmlns="http://www.w3.org/2000/svg">
  <path d="M19.8281 10.5156L17.7656 10.2344L16.875 8.40625C16.7344 8.07812 16.2656 8.07812 16.0781 8.40625L15.1875 10.2344L13.125 10.5156C12.75 10.5625 12.6094 11.0312 12.8906 11.3125L14.3438 12.7188L14.0156 14.7344C13.9688 15.1094 14.3438 15.3906 14.6719 15.2031L16.5 14.2656L18.2812 15.2031C18.6094 15.3906 18.9844 15.1094 18.9375 14.7344L18.6094 12.7188L20.0625 11.3125C20.3438 11.0312 20.2031 10.5625 19.8281 10.5156ZM24 7V4.75C24 4.375 23.625 4 23.25 4H9.75C9.32812 4 9 4.375 9 4.75V7H3.75C3.32812 7 3 7.375 3 7.75V10.6094C3 13.4688 6.1875 16.4688 10.4531 17.3125C11.7656 20.0312 13.6406 21.4375 15.375 21.8594V25.75H12.375C11.2969 25.75 10.5 26.5938 10.5 27.625C10.5 27.8594 10.6406 28 10.875 28H22.125C22.3125 28 22.5 27.8594 22.5 27.625C22.5 26.5938 21.6562 25.75 20.625 25.75H17.625V21.8594C19.3125 21.4375 21.2344 20.0312 22.5 17.3125C26.7656 16.5156 30 13.4688 30 10.6094V7.75C30 7.375 29.625 7 29.25 7H24ZM5.25 10.6094V9.25H9C9 11.125 9.09375 12.8594 9.5625 14.7344C6.98438 13.8438 5.25 11.9688 5.25 10.6094ZM16.5 19.75C14.0156 19.75 11.25 16.0938 11.25 9.625V6.25H21.75V9.625C21.75 16.2344 18.8906 19.75 16.5 19.75ZM27.75 10.6094C27.75 11.9688 25.9688 13.8438 23.3906 14.7344C23.8594 12.8594 24 11.125 24 9.25H27.75V10.6094Z" fill="#AFCA32"/>
</svg>
