<?xml version="1.0" encoding="UTF-8"?>
<svg width="32" height="32" viewBox="0 0 32 32" fill="none" xmlns="http://www.w3.org/2000/svg">
  <path d="M25.75 5.5H6.25C4.98438 5.5 4 6.53125 4 7.75V24.25C4 25.5156 4.98438 26.5 6.25 26.5H25.75C26.9688 26.5 28 25.5156 28 24.25V7.75C28 6.53125 26.9688 5.5 25.75 5.5ZM5.5 7.75C5.5 7.375 5.82812 7 6.25 7H8.5V10H5.5V7.75ZM26.5 24.25C26.5 24.6719 26.125 25 25.75 25H6.25C5.82812 25 5.5 24.6719 5.5 24.25V11.5H26.5V24.25ZM26.5 10H10V7H25.75C26.125 7 26.5 7.375 26.5 7.75V10Z" fill="#DDDDD7"/>
</svg>
