<?xml version="1.0" encoding="UTF-8"?>
<svg width="32" height="32" viewBox="0 0 32 32" fill="none" xmlns="http://www.w3.org/2000/svg">
  <path d="M25.75 5.5H6.25C4.98438 5.5 4 6.53125 4 7.75V24.25C4 25.5156 4.98438 26.5 6.25 26.5H25.75C26.9688 26.5 28 25.5156 28 24.25V7.75C28 6.53125 26.9688 5.5 25.75 5.5ZM6.25 8.3125C6.25 8.03125 6.48438 7.75 6.8125 7.75H8.6875C8.96875 7.75 9.25 8.03125 9.25 8.3125V9.4375C9.25 9.76562 8.96875 10 8.6875 10H6.8125C6.48438 10 6.25 9.76562 6.25 9.4375V8.3125ZM25.75 23.9688C25.75 24.1562 25.6094 24.25 25.4688 24.25H6.53125C6.34375 24.25 6.25 24.1562 6.25 23.9688V11.875H25.75V23.9688ZM25.75 9.4375C25.75 9.76562 25.4688 10 25.1875 10H12.0625C11.7344 10 11.5 9.76562 11.5 9.4375V8.3125C11.5 8.03125 11.7344 7.75 12.0625 7.75H25.1875C25.4688 7.75 25.75 8.03125 25.75 8.3125V9.4375Z" fill="#AFCA32"/>
</svg>
