<svg width="32" height="32" viewBox="0 0 32 32" fill="none" xmlns="http://www.w3.org/2000/svg">
  <path d="M16.375 16.7969C16.8438 16.375 16.8438 15.6719 16.375 15.25C15.9531 14.7812 15.25 14.7812 14.8281 15.25C14.3594 15.6719 14.3594 16.375 14.8281 16.7969C15.25 17.2656 15.9531 17.2656 16.375 16.7969ZM20.4531 9.85938C20.3594 9.85938 20.2188 9.90625 20.125 9.95312L12.8594 12.5781C12.5312 12.6719 12.25 12.9531 12.1562 13.2812L9.53125 20.5469C9.25 21.2969 10 22.1406 10.75 22.1406C10.8438 22.1406 10.9844 22.1406 11.0781 22.0938L18.3438 19.4688C18.6719 19.375 18.9531 19.0938 19.0469 18.7656L21.6719 11.5C21.9531 10.75 21.2031 9.85938 20.4531 9.85938ZM17.6875 18.1094L11.125 20.5L13.5156 13.9375L20.0781 11.5469L17.6875 18.1094ZM15.625 4.375C9.20312 4.375 4 9.625 4 16C4 22.4219 9.20312 27.625 15.625 27.625C22 27.625 27.25 22.4219 27.25 16C27.25 9.625 22 4.375 15.625 4.375ZM15.625 26.125C10 26.125 5.5 21.625 5.5 16C5.5 10.4219 10 5.875 15.625 5.875C21.2031 5.875 25.75 10.4219 25.75 16C25.75 21.625 21.2031 26.125 15.625 26.125Z" fill="#DDDDD7"/>
</svg>
