<svg width="32" height="32" viewBox="0 0 32 32" fill="none" xmlns="http://www.w3.org/2000/svg">
  <path d="M30.7188 15.625L19.1406 6.10938C18.7656 5.78125 18.0156 5.54688 17.5 5.54688C16.9375 5.54688 16.1875 5.78125 15.8125 6.10938L4.23438 15.625C4.09375 15.7656 4 16 4 16.1875C4 16.3281 4.04688 16.5625 4.14062 16.6562L4.65625 17.2656C4.75 17.4062 5.03125 17.5 5.21875 17.5C5.35938 17.5 5.59375 17.4531 5.6875 17.3594L7 16.2812V25C7 25.8438 7.65625 26.5 8.5 26.5H14.5C15.2969 26.5 15.9531 25.8438 16 25V20.125H19V25C19 25.8438 19.6562 26.5 20.5 26.5H26.5C27.2969 26.5 27.9531 25.8438 28 25.0469V16.2812L29.2656 17.3594C29.3594 17.4531 29.5938 17.5469 29.7344 17.5469C29.9219 17.5469 30.2031 17.4062 30.3438 17.2656L30.8125 16.6562C30.9062 16.5625 31 16.3281 31 16.1875C31 16 30.8594 15.7656 30.7188 15.625ZM25.7031 24.25H21.25V19.375C21.2031 18.5781 20.5469 17.9219 19.75 17.875H15.25C14.4062 17.9219 13.75 18.5781 13.75 19.375V24.25H9.25V14.4531L17.5 7.65625L25.75 14.4531L25.7031 24.25Z" fill="#AFCA32"/>
</svg>
