<svg width="32" height="32" viewBox="0 0 32 32" fill="none" xmlns="http://www.w3.org/2000/svg">
  <path d="M29.3594 14.7812L18.4375 5.875C18.2031 5.6875 17.7812 5.54688 17.4531 5.54688C17.1719 5.54688 16.75 5.6875 16.5156 5.875L5.64062 14.7812C5.54688 14.8281 5.5 14.9688 5.5 15.0625C5.5 15.1094 5.5 15.25 5.54688 15.2969L6.01562 15.8594C6.10938 15.9531 6.25 16 6.34375 16C6.39062 16 6.48438 15.9531 6.57812 15.9062L8.5 14.3594V25.75C8.5 26.1719 8.82812 26.5 9.25 26.5H15.25C15.625 26.5 16 26.1719 16 25.75V19.75H19V25.75C19 26.1719 19.3281 26.5 19.75 26.5H25.75C26.125 26.5 26.5 26.1719 26.5 25.75V14.3594L28.375 15.9062C28.4688 15.9531 28.5625 16 28.6094 16C28.75 16 28.8438 15.9531 28.9375 15.8594L29.4062 15.2969C29.4531 15.25 29.4531 15.1094 29.4531 15.0625C29.4531 14.9688 29.4062 14.8281 29.3594 14.7812ZM24.9531 25L20.4531 25.0469V19C20.4531 18.625 20.125 18.25 19.75 18.25H15.25H15.2031C14.8281 18.25 14.4531 18.5781 14.4531 19V25H10V13.1406L17.5 7L25 13.1406L24.9531 25Z" fill="#DDDDD7"/>
</svg>
