<?xml version="1.0" encoding="UTF-8"?>
<svg width="33" height="32" viewBox="0 0 33 32" fill="none" xmlns="http://www.w3.org/2000/svg">
  <path d="M14.9531 12.5781L18.0469 9.76562C18.375 9.4375 18.8438 9.29688 19.3125 9.29688L23.25 9.25C23.3438 9.25 23.4375 9.29688 23.4844 9.39062L26.3906 12.25H32.25C32.625 12.25 33 11.9219 33 11.5V10.75C33 10.3281 32.625 10 32.25 10H27.3281L25.0781 7.79688C24.6094 7.28125 23.9062 7 23.25 7H12.6094C11.9062 7 11.25 7.28125 10.7344 7.79688L8.53125 10H3.75C3.32812 10 3 10.375 3 10.75V11.5C3 11.9219 3.32812 12.25 3.75 12.25H9.42188L12.3281 9.39062C12.4219 9.34375 12.5156 9.29688 12.6094 9.25H15.2812L13.4531 10.9375C12.0469 12.2031 12 14.3125 13.2188 15.6719C13.9219 16.4219 16.125 17.5938 18 15.9062L18.375 15.5312L23.4375 19.6562C23.625 19.7969 23.625 20.0312 23.5312 20.1719L22.2656 21.6719C22.1719 21.8594 21.9375 21.8594 21.75 21.7656L20.625 20.8281L19.2188 22.5625C19.125 22.6562 18.9844 22.75 18.7969 22.7969C18.6562 22.7969 18.4688 22.75 18.375 22.6562L16.6406 21.2031L15.9375 22.0938C15.2812 22.8906 14.1094 23.0312 13.3594 22.375L8.76562 18.25H3.75C3.32812 18.25 3 18.625 3 19V19.75C3 20.1719 3.32812 20.5 3.75 20.5H7.92188L11.8594 24.1094C13.3125 25.2812 15.3281 25.3281 16.8281 24.2969C17.3906 24.7656 18.0469 25.0469 18.75 25.0469C19.5938 25.0469 20.3906 24.6719 21.0469 23.9219C22.0781 24.2969 23.2969 24.0156 24.0469 23.125L25.2656 21.5781C25.5 21.2969 25.6875 20.9219 25.7812 20.5H32.25C32.625 20.5 33 20.1719 33 19.75V19C33 18.625 32.625 18.25 32.25 18.25H25.2188C25.125 18.1562 24.9844 18.0156 24.8906 17.9219L20.0625 13.9844L20.625 13.4688C20.9531 13.1875 20.9531 12.7188 20.6719 12.3906L20.2031 11.875C19.9219 11.5469 19.4062 11.5469 19.125 11.8281L16.5469 14.1719C16.0781 14.5938 15.3281 14.6406 14.9062 14.1719C14.4844 13.7031 14.5312 13 14.9531 12.5781Z" fill="#AFCA32"/>
</svg>
