<?xml version="1.0" encoding="UTF-8"?>
<svg width="33" height="32" viewBox="0 0 33 32" fill="none" xmlns="http://www.w3.org/2000/svg">
  <path d="M14.1562 12.2969L18.0469 8.73438C18.1875 8.59375 18.375 8.54688 18.5625 8.54688H23.2969C23.4844 8.54688 23.6719 8.59375 23.8125 8.73438L26.6719 11.5469H32.625C32.8125 11.5469 33 11.3594 33 11.1719V10.4219C33 10.1875 32.8125 10.0469 32.625 10.0469H27.2812L24.8906 7.70312C24.4688 7.28125 23.9062 7.04688 23.2969 7.04688H18.5625C18.0938 7.04688 17.625 7.1875 17.25 7.51562C16.8281 7.1875 16.3594 7 15.8438 7H12.6094C12 7 11.4375 7.23438 11.0156 7.65625L8.67188 10H3.375C3.14062 10 3 10.1875 3 10.375V11.125C3 11.3594 3.14062 11.5 3.375 11.5H9.28125L12.0469 8.73438C12.1875 8.59375 12.4219 8.5 12.6094 8.5H15.8438C15.8906 8.64062 15.8906 8.54688 15.8906 8.64062L13.125 11.1719C11.8125 12.3906 11.7656 14.4531 12.9375 15.7188C13.5938 16.4688 15.7031 17.5938 17.4844 15.9531L18.5625 14.9688L24.4219 19.75C24.75 19.9844 24.7969 20.4531 24.5625 20.7812L24.0938 21.3438C23.8594 21.625 23.3906 21.7188 23.0625 21.4375L22.2188 20.7812L20.25 23.1719C19.9219 23.5938 19.2656 23.6406 18.8906 23.3125L17.4375 22.0938L16.9688 22.7031C16.1719 23.6406 14.7656 23.7812 13.8281 23.0781L9.65625 19.0469H3.375C3.14062 19.0469 3 19.1875 3 19.4219V20.1719C3 20.3594 3.14062 20.5469 3.375 20.5469H9.04688L12.8438 24.2031C14.25 25.3281 16.2188 25.2812 17.5781 24.1562L17.9062 24.4844C18.375 24.8125 18.9375 25 19.5 25C20.25 25 20.9531 24.6719 21.4219 24.1094L22.4531 22.8438C23.25 23.2656 24.4688 23.2656 25.2656 22.2812L25.7344 21.7188C26.0156 21.3906 26.1562 20.9688 26.2031 20.5469H32.625C32.8125 20.5469 33 20.3594 33 20.1719V19.4219C33 19.1875 32.8125 19.0469 32.625 19.0469H25.7812C25.6875 18.8594 25.5469 18.7188 25.4062 18.5781L19.6875 13.9375L21 12.7188C21.3281 12.4375 21.3281 11.9688 21.0469 11.6406C20.7656 11.3594 20.2969 11.3125 19.9688 11.5938L16.4531 14.8281C15.7969 15.4375 14.6719 15.3906 14.0625 14.7344C13.4062 14.0312 13.4531 12.9531 14.1562 12.2969Z" fill="#DDDDD7"/>
</svg>
