<?xml version="1.0" encoding="UTF-8"?>
<svg width="32" height="32" viewBox="0 0 32 32" fill="none" xmlns="http://www.w3.org/2000/svg">
  <path d="M16 5.5C18.8594 5.5 21.25 7.89062 21.25 10.75C21.25 13.6562 18.8594 16 16 16C13.0938 16 10.75 13.6562 10.75 10.75C10.75 7.89062 13.0938 5.5 16 5.5ZM22 20.5C24.4375 20.5 26.5 22.5625 26.5 25V26.5H5.5V25C5.5 22.5625 7.51562 20.5 10 20.5C13.9844 20.5 13.1406 21.25 16 21.25C18.8125 21.25 17.9688 20.5 22 20.5ZM16 4C12.25 4 9.25 7.04688 9.25 10.75C9.25 14.5 12.25 17.5 16 17.5C19.7031 17.5 22.75 14.5 22.75 10.75C22.75 7.04688 19.7031 4 16 4ZM22 19C17.6406 19 18.6719 19.75 16 19.75C13.3281 19.75 14.3125 19 10 19C6.67188 19 4 21.7188 4 25V26.5C4 27.3438 4.65625 28 5.5 28H26.5C27.2969 28 28 27.3438 28 26.5V25C28 21.7188 25.2812 19 22 19Z" fill="#DDDDD7"/>
</svg>