<?xml version="1.0" encoding="UTF-8"?>
<svg width="32" height="32" viewBox="0 0 32 32" fill="none" xmlns="http://www.w3.org/2000/svg">
  <path d="M28.4375 13H25.0156L18.9688 5.92188C18.5469 5.45312 17.8438 5.40625 17.375 5.78125C16.9062 6.20312 16.8594 6.90625 17.2344 7.375L22.0625 13H8.89062L13.7188 7.375C14.0938 6.90625 14.0469 6.20312 13.5781 5.78125C13.1094 5.40625 12.4062 5.45312 11.9844 5.92188L5.9375 13H2.5625C2.23438 13 2 13.2812 2 13.5625V14.6875C2 15.0156 2.23438 15.25 2.5625 15.25H3.40625L4.71875 24.5781C4.85938 25.7031 5.79688 26.5 6.92188 26.5H24.0312C25.1562 26.5 26.0938 25.7031 26.2344 24.5781L27.5469 15.25H28.4375C28.7188 15.25 29 15.0156 29 14.6875V13.5625C29 13.2812 28.7188 13 28.4375 13ZM24.0312 24.25H6.92188L5.70312 15.25H25.25L24.0312 24.25ZM16.625 17.875C16.625 17.2656 16.1094 16.75 15.5 16.75C14.8438 16.75 14.375 17.2656 14.375 17.875V21.625C14.375 22.2812 14.8438 22.75 15.5 22.75C16.1094 22.75 16.625 22.2812 16.625 21.625V17.875ZM21.875 17.875C21.875 17.2656 21.3594 16.75 20.75 16.75C20.0938 16.75 19.625 17.2656 19.625 17.875V21.625C19.625 22.2812 20.0938 22.75 20.75 22.75C21.3594 22.75 21.875 22.2812 21.875 21.625V17.875ZM11.375 17.875C11.375 17.2656 10.8594 16.75 10.25 16.75C9.59375 16.75 9.125 17.2656 9.125 17.875V21.625C9.125 22.2812 9.59375 22.75 10.25 22.75C10.8594 22.75 11.375 22.2812 11.375 21.625V17.875Z" fill="#AFCA32"/>
</svg>
