<?xml version="1.0" encoding="UTF-8"?>
<svg width="32" height="32" viewBox="0 0 32 32" fill="none" xmlns="http://www.w3.org/2000/svg">
  <path d="M28.4375 13H24.8281L18.2656 5.78125C17.9844 5.45312 17.5156 5.45312 17.2344 5.73438C16.9062 6.01562 16.9062 6.48438 17.1875 6.76562L22.8125 13H8.14062L13.7656 6.76562C14.0469 6.48438 14.0469 6.01562 13.7188 5.73438C13.4375 5.45312 12.9688 5.45312 12.6875 5.78125L6.125 13H2.5625C2.23438 13 2 13.2812 2 13.5625V13.9375C2 14.2656 2.23438 14.5 2.5625 14.5H3.3125L4.71875 24.5781C4.85938 25.7031 5.79688 26.5 6.92188 26.5H24.0312C25.1562 26.5 26.0938 25.7031 26.2344 24.5781L27.6406 14.5H28.4375C28.7188 14.5 29 14.2656 29 13.9375V13.5625C29 13.2812 28.7188 13 28.4375 13ZM24.7812 24.3906C24.6875 24.7656 24.4062 25 24.0312 25H6.92188C6.54688 25 6.26562 24.7656 6.17188 24.3906L4.8125 14.5H26.1406L24.7812 24.3906ZM16.25 17.125C16.25 16.75 15.875 16.375 15.5 16.375C15.0781 16.375 14.75 16.75 14.75 17.125V22.375C14.75 22.7969 15.0781 23.125 15.5 23.125C15.875 23.125 16.25 22.7969 16.25 22.375V17.125ZM21.5 17.125C21.5 16.75 21.125 16.375 20.75 16.375C20.3281 16.375 20 16.75 20 17.125V22.375C20 22.7969 20.3281 23.125 20.75 23.125C21.125 23.125 21.5 22.7969 21.5 22.375V17.125ZM11 17.125C11 16.75 10.625 16.375 10.25 16.375C9.82812 16.375 9.5 16.75 9.5 17.125V22.375C9.5 22.7969 9.82812 23.125 10.25 23.125C10.625 23.125 11 22.7969 11 22.375V17.125Z" fill="#DDDDD7"/>
</svg>