<?xml version="1.0" encoding="UTF-8"?>
<svg width="32" height="32" viewBox="0 0 32 32" fill="none" xmlns="http://www.w3.org/2000/svg">
  <path d="M25.9375 7.60938C23.8281 5.54688 21.5781 5.5 20.9688 5.5C20.3594 5.5 18.0625 5.54688 16 7.60938C13.8906 5.54688 11.5938 5.5 10.9844 5.5C10.4219 5.5 8.125 5.54688 6.01562 7.60938C4.70312 8.875 4 10.6094 4 12.4375C4 14.0781 4.5625 15.5312 5.54688 16.75H11.2188L12.625 13.4219L15.2969 19.3281C15.5312 19.8906 16.375 19.9375 16.6562 19.375L19 14.6875L20.0312 16.75H26.4062C27.3906 15.5312 27.9531 14.0781 27.9531 12.4375C28 10.6094 27.25 8.875 25.9375 7.60938ZM25.6562 15.25H20.9219L19.6562 12.6719C19.375 12.1094 18.5781 12.1094 18.2969 12.6719L16 17.2656L13.2812 11.2188C13 10.6094 12.1562 10.6094 11.9219 11.2188L10.2344 15.25H6.29688C5.875 14.5938 4.28125 11.4062 7.14062 8.59375C8.21875 7.5625 9.625 7 10.9844 7C12.5781 7 13.5625 7.32812 16 9.71875C18.5781 7.1875 19.4688 7 20.9688 7C22.375 7 23.7344 7.5625 24.8125 8.59375C27.6719 11.4062 26.0781 14.5938 25.6562 15.25ZM16.5625 24.8125C16.2812 25.0938 15.8125 25.0938 15.5312 24.8125L9.0625 18.25H7L14.4531 25.8906C15.3438 26.7344 16.75 26.7344 17.6406 25.8906L25 18.25H22.8906L16.5625 24.8125Z" fill="#DDDDD7"/>
</svg>
