<?xml version="1.0" encoding="UTF-8"?>
<svg width="32" height="32" viewBox="0 0 32 32" fill="none" xmlns="http://www.w3.org/2000/svg">
  <path d="M16.4688 24.0625C16.1875 24.3438 15.7656 24.3438 15.4844 24.0625L10.375 19H7.1875L13.8906 25.6562C15.0625 26.7812 16.8906 26.8281 18.0625 25.6562L24.7656 19H21.5781L16.4688 24.0625ZM20.5938 5.5C18.9062 5.5 17.2656 6.10938 16 7.14062C14.6875 6.10938 13.0469 5.5 11.3594 5.5C8.03125 5.5 4 8.17188 4 12.8125C4 14.5938 4.60938 16.2344 5.73438 17.5H11.2188L12.625 14.1719L15.2969 20.0781C15.5312 20.6406 16.375 20.6875 16.6562 20.125L19 15.4375L20.0312 17.5H26.2188C27.3438 16.2344 27.9531 14.5938 27.9531 12.8125C28 8.17188 23.9219 5.5 20.5938 5.5ZM24.5312 16H20.9219L19.6562 13.4219C19.375 12.8594 18.5781 12.8594 18.2969 13.4219L16 18.0156L13.2812 11.9688C13 11.3594 12.1562 11.3594 11.9219 11.9688L10.2344 16H7.42188C4.65625 12.7656 7.09375 7.75 11.3594 7.75C12.8125 7.75 13.75 8.07812 16 10.2812C18.3906 7.89062 19.2344 7.75 20.5938 7.75C24.8594 7.75 27.2969 12.7656 24.5312 16Z" fill="#AFCA32"/>
</svg>
