<?xml version="1.0" encoding="UTF-8"?>
<svg width="177" height="304" viewBox="115 0 182 304" fill="none" xmlns="http://www.w3.org/2000/svg">
  <path d="M208.731 185.403C208.731 185.379 208.731 185.355 208.731 185.33V33.5189C208.731 17.2146 196.091 4 180.498 4C164.906 4 152.266 17.2146 152.266 33.5189V185.33C152.266 185.355 152.27 185.379 152.27 185.403C133.088 195.601 120 215.843 120 239.178C120 272.768 147.087 300 180.498 300C213.909 300 240.996 272.768 240.996 239.178C240.996 215.843 228.897 195.601 208.731 185.403Z" stroke="#333333" stroke-width="7" stroke-miterlimit="10"/>
  <path d="M180.498 279.726C202.773 279.726 220.83 261.572 220.83 239.178C220.83 216.784 202.773 198.63 180.498 198.63C158.223 198.63 140.166 216.784 140.166 239.178C140.166 261.572 158.223 279.726 180.498 279.726Z" fill="url(#paint0_linear)"/>
  <path d="M196.509 209.267C196.509 219.06 189.383 227 180.594 227C171.805 227 164.679 219.06 164.679 209.267V111.733C164.679 101.94 163.987 107.899 181.588 102C199.19 96.1014 196.509 101.94 196.509 111.733V209.267Z" fill="#EB5757"/>
  <path d="M211 34.0001H239.232" stroke="#333333" stroke-width="7" stroke-miterlimit="10"/>
  <path d="M122 34.0001H150.232" stroke="#333333" stroke-width="7" stroke-miterlimit="10"/>
  <path d="M211 154H239.232" stroke="#333333" stroke-width="7" stroke-miterlimit="10"/>
  <path d="M122 154H150.232" stroke="#333333" stroke-width="7" stroke-miterlimit="10"/>
  <path d="M211 64.0001H239.232" stroke="#333333" stroke-width="7" stroke-miterlimit="10"/>
  <path d="M122 64.0001H150.232" stroke="#333333" stroke-width="7" stroke-miterlimit="10"/>
  <path d="M211 124H239.232" stroke="#333333" stroke-width="7" stroke-miterlimit="10"/>
  <path d="M122 124H150.232" stroke="#333333" stroke-width="7" stroke-miterlimit="10"/>
  <path d="M211 94.0001H239.232" stroke="#333333" stroke-width="7" stroke-miterlimit="10"/>
  <path d="M122 94.0001H150.232" stroke="#333333" stroke-width="7" stroke-miterlimit="10"/>
  <circle cx="170.5" cy="225.5" r="13.5" fill="white"/>
  <rect x="168" y="148" width="5" height="43" rx="2.5" fill="white"/>
  <path d="M257.396 126.348C257.54 126.348 257.652 126.388 257.732 126.468C257.812 126.54 257.852 126.636 257.852 126.756C257.852 127.028 257.7 127.164 257.396 127.164H256.496V128.556C256.496 128.716 256.448 128.84 256.352 128.928C256.264 129.016 256.148 129.06 256.004 129.06C255.86 129.06 255.744 129.016 255.656 128.928C255.568 128.84 255.524 128.716 255.524 128.556V127.164H251.972C251.828 127.164 251.716 127.124 251.636 127.044C251.556 126.964 251.516 126.864 251.516 126.744C251.516 126.632 251.56 126.508 251.648 126.372L255.572 120.696C255.684 120.552 255.828 120.48 256.004 120.48C256.14 120.48 256.256 120.524 256.352 120.612C256.448 120.7 256.496 120.824 256.496 120.984V126.348H257.396ZM255.524 126.348V122.184L252.632 126.348H255.524ZM261.795 129.096C260.827 129.096 260.091 128.728 259.587 127.992C259.083 127.256 258.831 126.184 258.831 124.776C258.831 123.36 259.083 122.284 259.587 121.548C260.091 120.812 260.827 120.444 261.795 120.444C262.763 120.444 263.499 120.812 264.003 121.548C264.507 122.276 264.759 123.348 264.759 124.764C264.759 126.18 264.507 127.256 264.003 127.992C263.499 128.728 262.763 129.096 261.795 129.096ZM261.795 128.268C262.467 128.268 262.963 127.984 263.283 127.416C263.603 126.848 263.763 125.964 263.763 124.764C263.763 123.556 263.603 122.672 263.283 122.112C262.971 121.552 262.475 121.272 261.795 121.272C261.123 121.272 260.627 121.556 260.307 122.124C259.987 122.684 259.827 123.564 259.827 124.764C259.827 125.964 259.987 126.848 260.307 127.416C260.627 127.984 261.123 128.268 261.795 128.268Z" fill="#333333"/>
  <path d="M257.096 155.172C257.24 155.172 257.352 155.208 257.432 155.28C257.512 155.352 257.552 155.452 257.552 155.58C257.552 155.86 257.4 156 257.096 156H252.392C252.256 156 252.144 155.96 252.056 155.88C251.968 155.792 251.924 155.688 251.924 155.568C251.924 155.416 251.98 155.284 252.092 155.172L254.984 151.992C255.384 151.544 255.672 151.144 255.848 150.792C256.032 150.432 256.124 150.072 256.124 149.712C256.124 149.248 255.988 148.892 255.716 148.644C255.452 148.396 255.076 148.272 254.588 148.272C254.204 148.272 253.836 148.344 253.484 148.488C253.132 148.624 252.78 148.836 252.428 149.124C252.308 149.22 252.196 149.268 252.092 149.268C252.004 149.268 251.928 149.228 251.864 149.148C251.8 149.06 251.768 148.956 251.768 148.836C251.768 148.668 251.832 148.532 251.96 148.428C252.288 148.124 252.688 147.884 253.16 147.708C253.632 147.532 254.116 147.444 254.612 147.444C255.372 147.444 255.976 147.644 256.424 148.044C256.88 148.444 257.108 148.984 257.108 149.664C257.108 150.152 256.996 150.62 256.772 151.068C256.556 151.516 256.196 152.016 255.692 152.568L253.292 155.172H257.096ZM261.795 156.096C260.827 156.096 260.091 155.728 259.587 154.992C259.083 154.256 258.831 153.184 258.831 151.776C258.831 150.36 259.083 149.284 259.587 148.548C260.091 147.812 260.827 147.444 261.795 147.444C262.763 147.444 263.499 147.812 264.003 148.548C264.507 149.276 264.759 150.348 264.759 151.764C264.759 153.18 264.507 154.256 264.003 154.992C263.499 155.728 262.763 156.096 261.795 156.096ZM261.795 155.268C262.467 155.268 262.963 154.984 263.283 154.416C263.603 153.848 263.763 152.964 263.763 151.764C263.763 150.556 263.603 149.672 263.283 149.112C262.971 148.552 262.475 148.272 261.795 148.272C261.123 148.272 260.627 148.556 260.307 149.124C259.987 149.684 259.827 150.564 259.827 151.764C259.827 152.964 259.987 153.848 260.307 154.416C260.627 154.984 261.123 155.268 261.795 155.268Z" fill="#333333"/>
  <path d="M256.064 63.656C256.56 63.808 256.944 64.068 257.216 64.436C257.496 64.804 257.636 65.244 257.636 65.756C257.636 66.484 257.372 67.056 256.844 67.472C256.316 67.88 255.568 68.084 254.6 68.084C253.632 68.084 252.884 67.88 252.356 67.472C251.828 67.056 251.564 66.484 251.564 65.756C251.564 65.236 251.704 64.792 251.984 64.424C252.264 64.056 252.652 63.8 253.148 63.656C252.724 63.496 252.388 63.244 252.14 62.9C251.892 62.556 251.768 62.152 251.768 61.688C251.768 61 252.016 60.456 252.512 60.056C253.016 59.648 253.712 59.444 254.6 59.444C255.488 59.444 256.18 59.648 256.676 60.056C257.18 60.456 257.432 61 257.432 61.688C257.432 62.152 257.308 62.56 257.06 62.912C256.812 63.256 256.48 63.504 256.064 63.656ZM252.74 61.76C252.74 62.256 252.896 62.636 253.208 62.9C253.528 63.164 253.992 63.296 254.6 63.296C255.208 63.296 255.668 63.164 255.98 62.9C256.3 62.636 256.46 62.256 256.46 61.76C256.46 61.288 256.3 60.92 255.98 60.656C255.668 60.392 255.208 60.26 254.6 60.26C253.992 60.26 253.528 60.392 253.208 60.656C252.896 60.92 252.74 61.288 252.74 61.76ZM254.6 67.268C255.976 67.268 256.664 66.744 256.664 65.696C256.664 64.648 255.976 64.124 254.6 64.124C253.224 64.124 252.536 64.648 252.536 65.696C252.536 66.744 253.224 67.268 254.6 67.268ZM261.795 68.096C260.827 68.096 260.091 67.728 259.587 66.992C259.083 66.256 258.831 65.184 258.831 63.776C258.831 62.36 259.083 61.284 259.587 60.548C260.091 59.812 260.827 59.444 261.795 59.444C262.763 59.444 263.499 59.812 264.003 60.548C264.507 61.276 264.759 62.348 264.759 63.764C264.759 65.18 264.507 66.256 264.003 66.992C263.499 67.728 262.763 68.096 261.795 68.096ZM261.795 67.268C262.467 67.268 262.963 66.984 263.283 66.416C263.603 65.848 263.763 64.964 263.763 63.764C263.763 62.556 263.603 61.672 263.283 61.112C262.971 60.552 262.475 60.272 261.795 60.272C261.123 60.272 260.627 60.556 260.307 61.124C259.987 61.684 259.827 62.564 259.827 63.764C259.827 64.964 259.987 65.848 260.307 66.416C260.627 66.984 261.123 67.268 261.795 67.268Z" fill="#333333"/>
  <path d="M254.948 91.684C255.46 91.684 255.916 91.796 256.316 92.02C256.716 92.244 257.028 92.56 257.252 92.968C257.476 93.376 257.588 93.844 257.588 94.372C257.588 94.892 257.472 95.36 257.24 95.776C257.008 96.192 256.684 96.516 256.268 96.748C255.852 96.98 255.384 97.096 254.864 97.096C253.84 97.096 253.048 96.74 252.488 96.028C251.936 95.316 251.66 94.3 251.66 92.98C251.66 92.036 251.788 91.224 252.044 90.544C252.3 89.864 252.672 89.344 253.16 88.984C253.648 88.624 254.228 88.444 254.9 88.444C255.356 88.444 255.808 88.532 256.256 88.708C256.712 88.884 257.1 89.124 257.42 89.428C257.556 89.556 257.624 89.692 257.624 89.836C257.624 89.956 257.592 90.056 257.528 90.136C257.464 90.216 257.388 90.256 257.3 90.256C257.188 90.256 257.072 90.212 256.952 90.124C256.256 89.556 255.58 89.272 254.924 89.272C254.212 89.272 253.656 89.596 253.256 90.244C252.856 90.892 252.656 91.8 252.656 92.968V93.124C252.84 92.676 253.136 92.324 253.544 92.068C253.96 91.812 254.428 91.684 254.948 91.684ZM254.816 96.268C255.36 96.268 255.796 96.096 256.124 95.752C256.452 95.408 256.616 94.952 256.616 94.384C256.616 93.816 256.448 93.364 256.112 93.028C255.784 92.684 255.348 92.512 254.804 92.512C254.252 92.512 253.8 92.688 253.448 93.04C253.104 93.384 252.932 93.832 252.932 94.384C252.932 94.944 253.104 95.4 253.448 95.752C253.8 96.096 254.256 96.268 254.816 96.268ZM261.784 97.096C260.816 97.096 260.08 96.728 259.576 95.992C259.072 95.256 258.82 94.184 258.82 92.776C258.82 91.36 259.072 90.284 259.576 89.548C260.08 88.812 260.816 88.444 261.784 88.444C262.752 88.444 263.488 88.812 263.992 89.548C264.496 90.276 264.748 91.348 264.748 92.764C264.748 94.18 264.496 95.256 263.992 95.992C263.488 96.728 262.752 97.096 261.784 97.096ZM261.784 96.268C262.456 96.268 262.952 95.984 263.272 95.416C263.592 94.848 263.752 93.964 263.752 92.764C263.752 91.556 263.592 90.672 263.272 90.112C262.96 89.552 262.464 89.272 261.784 89.272C261.112 89.272 260.616 89.556 260.296 90.124C259.976 90.684 259.816 91.564 259.816 92.764C259.816 93.964 259.976 94.848 260.296 95.416C260.616 95.984 261.112 96.268 261.784 96.268Z" fill="#333333"/>
  <path d="M248.144 34.208C248.248 34.208 248.336 34.244 248.408 34.316C248.488 34.388 248.528 34.476 248.528 34.58C248.528 34.684 248.492 34.776 248.42 34.856C248.348 34.928 248.256 34.964 248.144 34.964H245.972V37.124C245.972 37.236 245.936 37.328 245.864 37.4C245.792 37.472 245.704 37.508 245.6 37.508C245.496 37.508 245.408 37.472 245.336 37.4C245.264 37.32 245.228 37.228 245.228 37.124V34.964H243.056C242.952 34.964 242.86 34.928 242.78 34.856C242.708 34.776 242.672 34.684 242.672 34.58C242.672 34.476 242.708 34.388 242.78 34.316C242.86 34.244 242.952 34.208 243.056 34.208H245.228V32.048C245.228 31.936 245.264 31.844 245.336 31.772C245.408 31.692 245.496 31.652 245.6 31.652C245.704 31.652 245.792 31.692 245.864 31.772C245.936 31.844 245.972 31.936 245.972 32.048V34.208H248.144ZM255.099 37.172C255.243 37.172 255.355 37.208 255.435 37.28C255.515 37.352 255.555 37.452 255.555 37.58C255.555 37.716 255.515 37.82 255.435 37.892C255.363 37.964 255.251 38 255.099 38H251.127C250.975 38 250.859 37.964 250.779 37.892C250.707 37.82 250.671 37.716 250.671 37.58C250.671 37.452 250.711 37.352 250.791 37.28C250.871 37.208 250.983 37.172 251.127 37.172H252.615V30.74L251.307 31.592C251.243 31.632 251.179 31.652 251.115 31.652C251.003 31.652 250.903 31.6 250.815 31.496C250.735 31.392 250.695 31.28 250.695 31.16C250.695 30.992 250.759 30.872 250.887 30.8L252.711 29.612C252.847 29.524 252.987 29.48 253.131 29.48C253.267 29.48 253.379 29.524 253.467 29.612C253.555 29.7 253.599 29.824 253.599 29.984V37.172H255.099ZM259.991 38.096C259.023 38.096 258.287 37.728 257.783 36.992C257.279 36.256 257.027 35.184 257.027 33.776C257.027 32.36 257.279 31.284 257.783 30.548C258.287 29.812 259.023 29.444 259.991 29.444C260.959 29.444 261.695 29.812 262.199 30.548C262.703 31.276 262.955 32.348 262.955 33.764C262.955 35.18 262.703 36.256 262.199 36.992C261.695 37.728 260.959 38.096 259.991 38.096ZM259.991 37.268C260.663 37.268 261.159 36.984 261.479 36.416C261.799 35.848 261.959 34.964 261.959 33.764C261.959 32.556 261.799 31.672 261.479 31.112C261.167 30.552 260.671 30.272 259.991 30.272C259.319 30.272 258.823 30.556 258.503 31.124C258.183 31.684 258.023 32.564 258.023 33.764C258.023 34.964 258.183 35.848 258.503 36.416C258.823 36.984 259.319 37.268 259.991 37.268ZM267.186 38.096C266.218 38.096 265.482 37.728 264.978 36.992C264.474 36.256 264.222 35.184 264.222 33.776C264.222 32.36 264.474 31.284 264.978 30.548C265.482 29.812 266.218 29.444 267.186 29.444C268.154 29.444 268.89 29.812 269.394 30.548C269.898 31.276 270.15 32.348 270.15 33.764C270.15 35.18 269.898 36.256 269.394 36.992C268.89 37.728 268.154 38.096 267.186 38.096ZM267.186 37.268C267.858 37.268 268.354 36.984 268.674 36.416C268.994 35.848 269.154 34.964 269.154 33.764C269.154 32.556 268.994 31.672 268.674 31.112C268.362 30.552 267.866 30.272 267.186 30.272C266.514 30.272 266.018 30.556 265.698 31.124C265.378 31.684 265.218 32.564 265.218 33.764C265.218 34.964 265.378 35.848 265.698 36.416C266.018 36.984 266.514 37.268 267.186 37.268Z" fill="#333333"/>
  <defs>
    <linearGradient id="paint0_linear" x1="193.956" y1="226.805" x2="252.116" y2="398.747" gradientUnits="userSpaceOnUse">
      <stop stop-color="#EB5757"/>
      <stop offset="1" stop-color="#DF0202"/>
    </linearGradient>
  </defs>
</svg>