<svg width="24" height="21" viewBox="0 0 24 21" fill="none" xmlns="http://www.w3.org/2000/svg">
  <path d="M22.7812 8.19531L15.9062 1.00781C14.9688 -0.0078125 13.25 0.65625 13.25 2.10156V5.53906C6.76562 5.61719 0.75 6.78906 0.75 13.4688C0.75 17.1797 2.89844 19.3281 4.22656 20.2656C5.16406 20.9688 6.49219 20.0703 6.14062 18.9375C4.65625 13.6641 7.19531 13.0781 13.25 13.0391V16.4375C13.25 17.8828 14.9688 18.5469 15.9062 17.5312L22.7812 10.3438C23.3672 9.75781 23.3672 8.78125 22.7812 8.19531ZM21.8828 9.48438L15.0078 16.6719C14.8125 16.8672 14.5 16.75 14.5 16.4375V11.75C7.78125 11.75 2.9375 12.1406 4.96875 19.25C3.5625 18.2344 2 16.3594 2 13.4688C2 7.21875 8.32812 6.75 14.5 6.75V2.0625C14.5 1.78906 14.8125 1.67188 15.0078 1.86719L21.8828 9.05469C21.9609 9.09375 22 9.21094 22 9.25C22 9.32812 21.9609 9.44531 21.8828 9.48438Z" fill="#707C89"/>
</svg>
