<svg height="446pt" viewBox="0 0 446 446.84" width="446pt" xmlns="http://www.w3.org/2000/svg"><path d="m120.5 380.929688c-13.769531 3.84375-27.238281 8.703124-40.289062 14.542968 24.457031 20.453125 53.003906 35.4375 83.730468 43.953125-18.265625-16.382812-33.039062-36.277343-43.441406-58.496093zm0 0"/><path d="m444.890625 191.558594c-7.046875-23.773438-28.875-40.097656-53.671875-40.132813h-336c-24.796875.035157-46.625 16.359375-53.671875 40.132813-1.5039062 21.21875-1.5039062 42.511718 0 63.730468 7.046875 23.773438 28.875 40.097657 53.671875 40.136719h336c24.796875-.039062 46.625-16.363281 53.671875-40.136719 1.503906-21.21875 1.503906-42.511718 0-63.730468zm-294.007813-5.839844-24 80c-.976562 3.261719-3.910156 5.546875-7.3125 5.695312h-.351562c-3.269531.003907-6.214844-1.984374-7.429688-5.023437l-24.570312-61.429687-24.566406 61.4375c-1.261719 3.164062-4.386719 5.179687-7.789063 5.027343-3.402343-.152343-6.335937-2.441406-7.308593-5.707031l-24-80c-1.265626-4.230469 1.136718-8.691406 5.371093-9.957031 4.230469-1.269531 8.691407 1.132812 9.957031 5.367187l17.417969 58.054688 23.488281-58.734375c1.210938-3.042969 4.15625-5.039063 7.429688-5.039063 3.277344 0 6.222656 1.996094 7.433594 5.039063l23.488281 58.734375 17.414063-58.054688c1.269531-4.234375 5.730468-6.636718 9.960937-5.367187 4.234375 1.265625 6.636719 5.726562 5.367187 9.957031zm136 0-24 80c-.976562 3.257812-3.90625 5.542969-7.304687 5.695312h-.359375c-3.269531.003907-6.214844-1.984374-7.429688-5.023437l-24.570312-61.429687-24.566406 61.4375c-1.261719 3.164062-4.386719 5.179687-7.789063 5.027343-3.402343-.152343-6.335937-2.441406-7.308593-5.707031l-24-80c-1.265626-4.230469 1.136718-8.691406 5.371093-9.957031 4.230469-1.269531 8.691407 1.132812 9.957031 5.367187l17.417969 58.054688 23.488281-58.734375c1.210938-3.042969 4.15625-5.039063 7.429688-5.039063 3.277344 0 6.222656 1.996094 7.433594 5.039063l23.488281 58.734375 17.414063-58.054688c1.269531-4.234375 5.730468-6.636718 9.960937-5.367187 4.234375 1.265625 6.636719 5.726562 5.367187 9.957031zm144 0-24 80c-.976562 3.257812-3.90625 5.542969-7.304687 5.695312h-.359375c-3.269531.003907-6.214844-1.984374-7.429688-5.023437l-24.570312-61.429687-24.566406 61.4375c-1.261719 3.164062-4.386719 5.179687-7.789063 5.027343-3.402343-.152343-6.335937-2.441406-7.308593-5.707031l-24-80c-1.265626-4.230469 1.136718-8.691406 5.371093-9.957031 4.230469-1.269531 8.691407 1.132812 9.957031 5.367187l17.417969 58.054688 23.488281-58.734375c1.210938-3.042969 4.15625-5.039063 7.429688-5.039063 3.277344 0 6.222656 1.996094 7.433594 5.039063l23.488281 58.734375 17.414063-58.054688c1.269531-4.234375 5.730468-6.636718 9.960937-5.367187 4.234375 1.265625 6.636719 5.726562 5.367187 9.957031zm0 0"/><path d="m391.21875 311.425781h-41.453125c-4.042969 18.757813-9.761719 37.117188-17.089844 54.855469 15.964844 4.554688 31.515625 10.441406 46.496094 17.597656 25.089844-24.363281 44.148437-54.246094 55.65625-87.269531-12.503906 9.609375-27.835937 14.820313-43.609375 14.816406zm0 0"/><path d="m55.21875 311.425781c-15.773438-.007812-31.105469-5.226562-43.605469-14.851562 11.507813 33.027343 30.5625 62.910156 55.65625 87.273437 14.980469-7.15625 30.535157-13.046875 46.503907-17.601562-7.328126-17.726563-13.054688-36.074219-17.105469-54.820313zm0 0"/><path d="m282.507812 439.425781c30.71875-8.511719 59.261719-23.488281 83.71875-43.929687-13.046874-5.839844-26.507812-10.699219-40.277343-14.535156-10.410157 22.203124-25.183594 42.089843-43.441407 58.464843zm0 0"/><path d="m231.21875 311.425781v40.207031c28.929688.457032 57.726562 4.019532 85.898438 10.625 6.886718-16.441406 12.324218-33.449218 16.246093-50.832031zm0 0"/><path d="m215.21875 446.839844v-79.199219c-26.574219.429687-53.03125 3.574219-78.964844 9.382813 20.503906 40.3125 48.628906 65.953124 78.964844 69.816406zm0 0"/><path d="m231.21875 446.839844c30.34375-3.863282 58.464844-29.503906 78.96875-69.824219-25.933594-5.808594-52.394531-8.953125-78.96875-9.382813zm0 0"/><path d="m391.21875 135.425781c15.777344.003907 31.109375 5.222657 43.609375 14.847657-11.507813-33.027344-30.566406-62.910157-55.65625-87.273438-14.980469 7.15625-30.53125 13.042969-46.496094 17.601562 7.324219 17.726563 13.046875 36.074219 17.089844 54.824219zm0 0"/><path d="m55.21875 135.425781h41.449219c4.050781-18.761719 9.773437-37.121093 17.105469-54.859375-15.96875-4.554687-31.523438-10.441406-46.503907-17.597656-25.097656 24.371094-44.152343 54.265625-55.65625 87.304688 12.5-9.625 27.832031-14.84375 43.605469-14.847657zm0 0"/><path d="m215.21875 311.425781h-102.144531c3.925781 17.382813 9.363281 34.390625 16.25 50.832031 28.167969-6.605468 56.964843-10.167968 85.894531-10.625zm0 0"/><path d="m325.949219 65.910156c13.769531-3.835937 27.230469-8.695312 40.277343-14.535156-24.453124-20.449219-53-35.433594-83.71875-43.949219 18.261719 16.378907 33.035157 36.273438 43.441407 58.484375zm0 0"/><path d="m231.21875 135.425781h102.144531c-3.921875-17.386719-9.359375-34.394531-16.246093-50.832031-28.171876 6.582031-56.96875 10.136719-85.898438 10.597656zm0 0"/><path d="m215.21875 0c-30.335938 3.871094-58.460938 29.511719-78.964844 69.832031 25.933594 5.800781 52.394532 8.9375 78.964844 9.367188zm0 0"/><path d="m163.941406 7.425781c-30.722656 8.503907-59.269531 23.480469-83.730468 43.925781 13.050781 5.839844 26.519531 10.699219 40.289062 14.542969 10.402344-22.210937 25.175781-42.097656 43.441406-58.46875zm0 0"/><path d="m215.21875 135.425781v-40.234375c-28.925781-.460937-57.722656-4.015625-85.894531-10.597656-6.886719 16.4375-12.324219 33.445312-16.25 50.832031zm0 0"/><path d="m231.21875 0v79.199219c26.574219-.429688 53.035156-3.574219 78.96875-9.375-20.503906-40.3125-48.632812-65.953125-78.96875-69.824219zm0 0"/></svg>